HIERARCHY
ROOT Hips
{
 OFFSET 0.000000 0.000000 0.000000
 CHANNELS 6 Xposition Yposition Zposition Yrotation Xrotation Zrotation
 JOINT Chest
 {
  OFFSET 0.000000 9.588913 -0.003946
  CHANNELS 3 Yrotation Xrotation Zrotation
  JOINT Chest2
  {
   OFFSET 0.000000 9.541882 0.008053
   CHANNELS 3 Yrotation Xrotation Zrotation
   JOINT Chest3
   {
    OFFSET 0.000000 9.501360 0.000000
    CHANNELS 3 Yrotation Xrotation Zrotation
    JOINT Chest4
    {
     OFFSET 0.000000 9.491660 0.000000
     CHANNELS 3 Yrotation Xrotation Zrotation
     JOINT Neck
     {
      OFFSET 0.000000 14.331917 0.000000
      CHANNELS 3 Yrotation Xrotation Zrotation
      JOINT Head
      {
       OFFSET 0.000000 8.884799 0.017034
       CHANNELS 3 Yrotation Xrotation Zrotation
       End Site
       {
        OFFSET 0.000000 16.896195 0.008993
       }
      }
     }
     JOINT RightCollar
     {
      OFFSET -2.923010 9.499495 0.000000
      CHANNELS 3 Yrotation Xrotation Zrotation
      JOINT RightShoulder
      {
       OFFSET -13.795216 0.000000 0.000000
       CHANNELS 3 Yrotation Xrotation Zrotation
       JOINT RightElbow
       {
        OFFSET -30.272209 0.000000 0.000000
        CHANNELS 3 Yrotation Xrotation Zrotation
        JOINT RightWrist
        {
         OFFSET -24.478199 0.000000 0.000000
         CHANNELS 3 Yrotation Xrotation Zrotation
         End Site
         {
          OFFSET -18.090752 0.000000 0.000000
         }
        }
       }
      }
     }
     JOINT LeftCollar
     {
      OFFSET 2.923010 9.499495 0.000000
      CHANNELS 3 Yrotation Xrotation Zrotation
      JOINT LeftShoulder
      {
       OFFSET 13.795216 0.000000 0.000000
       CHANNELS 3 Yrotation Xrotation Zrotation
       JOINT LeftElbow
       {
        OFFSET 30.272209 0.000000 0.000000
        CHANNELS 3 Yrotation Xrotation Zrotation
        JOINT LeftWrist
        {
         OFFSET 24.478199 0.000000 0.000000
         CHANNELS 3 Yrotation Xrotation Zrotation
         End Site
         {
          OFFSET 18.090752 0.000000 0.000000
         }
        }
       }
      }
     }
    }
   }
  }
 }
 JOINT RightHip
 {
  OFFSET -7.826875 0.019532 0.001973
  CHANNELS 3 Yrotation Xrotation Zrotation
  JOINT RightKnee
  {
   OFFSET 0.000000 -40.546152 -0.001885
   CHANNELS 3 Yrotation Xrotation Zrotation
   JOINT RightAnkle
   {
    OFFSET 0.000000 -39.417092 -0.003189
    CHANNELS 3 Yrotation Xrotation Zrotation
    JOINT RightToe
    {
     OFFSET 0.000000 -7.579396 17.243563
     CHANNELS 3 Yrotation Xrotation Zrotation
     End Site
     {
      OFFSET 0.000000 -1.500329 6.694466
     }
    }
   }
  }
 }
 JOINT LeftHip
 {
  OFFSET 7.826875 0.019532 0.001973
  CHANNELS 3 Yrotation Xrotation Zrotation
  JOINT LeftKnee
  {
   OFFSET 0.000000 -40.546152 -0.001885
   CHANNELS 3 Yrotation Xrotation Zrotation
   JOINT LeftAnkle
   {
    OFFSET 0.000000 -39.417092 -0.003189
    CHANNELS 3 Yrotation Xrotation Zrotation
    JOINT LeftToe
    {
     OFFSET 0.000000 -7.579396 17.243563
     CHANNELS 3 Yrotation Xrotation Zrotation
     End Site
     {
      OFFSET 0.000000 -1.500329 6.694466
     }
    }
   }
  }
 }
}
MOTION
Frames: 10
Frame Time: 0.008333
32.188996 6.773440 45.259257 -138.974003 -56.133092 11.794308 -1.109613 20.189816 4.233812 -0.901619 11.442779 2.723676 -1.045082 14.309100 3.392982 -0.901602 11.442809 2.723664 -19.783094 14.505951 -1.399541 -23.373655 -9.231295 3.266134 -19.472159 1.400334 -17.551782 -13.185957 24.496612 105.241186 36.929990 -42.836943 -12.126189 28.422555 -7.840179 -59.582404 -13.267051 -6.842308 -2.947237 17.686181 -13.854131 -61.219875 -13.858343 12.137455 -3.329185 6.019679 5.311667 1.706999 -8.979159 -60.276196 -8.697327 -0.084254 46.432835 -2.628937 -1.626802 30.740585 12.631844 0.509360 -0.492479 -1.037564 114.087975 -70.793918 -116.421462 174.052496 45.465689 172.729741 -0.394273 16.555216 -1.483310 0.267219 1.701153 0.750383
32.222561 6.937192 45.249128 -139.516893 -56.123464 12.753372 -1.367763 20.259850 3.928938 -1.011509 11.474075 2.645912 -1.185436 14.348851 3.291744 -1.011496 11.474105 2.645905 -19.811894 14.359885 -1.354655 -23.438513 -9.397377 3.333929 -19.562840 1.262872 -17.499224 -13.637326 24.312097 105.023384 37.010066 -41.969131 -12.119548 28.388350 -7.705590 -59.878980 -13.629776 -7.271878 -3.048677 17.299117 -15.014358 -60.233544 -16.400537 11.864791 -5.086418 5.876594 5.094594 1.281681 -8.466045 -60.340531 -9.303379 0.070703 46.393531 -2.479021 -1.618763 30.713362 12.558625 0.471889 -0.378785 -0.959048 113.526249 -70.746042 -115.781094 173.776762 45.403904 172.503863 -0.626193 15.890044 -2.082041 0.332972 1.878386 0.809443
32.266532 7.113143 45.228521 -140.085870 -56.099734 13.661267 -1.608722 20.312621 3.682202 -1.120630 11.497837 2.558982 -1.325194 14.379106 3.178991 -1.120622 11.497865 2.558981 -19.845362 14.239146 -1.311237 -23.507656 -9.533035 3.400196 -19.668412 1.139169 -17.432226 -13.983674 24.108217 104.835869 37.141861 -41.163852 -12.197735 28.356326 -7.568854 -60.101431 -14.013272 -7.687795 -3.117150 16.839893 -16.143378 -59.185413 -18.834884 11.429075 -6.872666 5.839971 4.914903 0.739904 -8.041092 -60.411119 -9.762818 0.225138 46.396209 -2.322920 -1.648641 30.614668 12.418605 0.423700 -0.262583 -0.859684 112.998770 -70.762714 -115.150568 173.526987 45.344756 172.294471 -0.799387 15.255555 -2.627743 0.364109 1.986007 0.842534
32.317793 7.299937 45.201628 -140.674307 -56.053595 14.535298 -1.840271 20.339311 3.467617 -1.227746 11.514197 2.465306 -1.462715 14.400022 3.057811 -1.227744 11.514225 2.465309 -19.883925 14.142164 -1.271889 -23.580959 -9.640232 3.461953 -19.771586 1.030300 -17.346979 -14.331022 23.891282 104.632897 37.242636 -40.352224 -12.281117 28.325674 -7.431170 -60.281591 -14.422665 -8.084925 -3.155002 16.327127 -17.253779 -58.076574 -21.146585 10.888915 -8.664182 5.803783 4.759572 0.199129 -7.663008 -60.503229 -10.124716 0.382546 46.440853 -2.169820 -1.712322 30.461019 12.245125 0.373522 -0.152725 -0.758113 112.509749 -70.822397 -114.528902 173.345156 45.288674 172.130544 -0.927494 14.648986 -3.140516 0.370544 2.031904 0.860365
32.376024 7.497704 45.168305 -141.281090 -55.983326 15.365721 -2.062714 20.340613 3.286445 -1.332356 11.523936 2.367760 -1.597264 14.412578 2.931844 -1.332360 11.523968 2.367766 -19.925237 14.063305 -1.240993 -23.654293 -9.726177 3.513547 -19.862267 0.920766 -17.257650 -14.697303 23.655966 104.384954 37.256272 -39.529754 -12.323603 28.292064 -7.297020 -60.443843 -14.859130 -8.474219 -3.158254 15.775585 -18.330766 -56.929262 -23.328424 10.304840 -10.399123 5.682049 4.610281 -0.277625 -7.349148 -60.609648 -10.366408 0.537256 46.514764 -2.031307 -1.818961 30.264128 12.051513 0.324895 -0.054529 -0.668725 112.087002 -70.934123 -113.946001 173.242624 45.236908 172.023937 -1.028371 14.081532 -3.637069 0.354264 2.014702 0.864578
32.440157 7.707496 45.128110 -141.894591 -55.898013 16.135847 -2.279396 20.324419 3.138994 -1.436614 11.528437 2.269249 -1.731437 14.418523 2.804676 -1.436621 11.528480 2.269259 -19.966634 13.997701 -1.222247 -23.723232 -9.797178 3.550016 -19.929161 0.783461 -17.183119 -15.084830 23.405598 104.065948 37.137681 -38.719143 -12.283383 28.260298 -7.153240 -60.610286 -15.316148 -8.859861 -3.123243 15.181521 -19.362835 -55.774963 -25.369326 9.721025 -11.993214 5.436605 4.454006 -0.668378 -7.114938 -60.713733 -10.486468 0.668044 46.609338 -1.916655 -1.948657 30.025407 11.858632 0.279572 0.031331 -0.602024 111.714568 -71.102497 -113.400015 173.196332 45.187690 171.963674 -1.125483 13.559007 -4.120676 0.321513 1.938002 0.850010
32.511923 7.929665 45.075242 -142.520893 -55.816490 16.809725 -2.471289 20.311484 3.063587 -1.542858 11.530033 2.172485 -1.868065 14.420795 2.679638 -1.542866 11.530090 2.172496 -20.005954 13.941933 -1.217592 -23.784446 -9.857667 3.568577 -19.966013 0.595958 -17.128132 -15.538913 23.145296 103.644703 36.830269 -37.898765 -12.105293 28.240424 -6.993409 -60.789638 -15.786909 -9.247174 -3.048355 14.535211 -20.329174 -54.627733 -27.290017 9.159352 -13.391099 5.075097 4.288558 -0.961058 -7.028248 -60.777266 -10.411076 0.757157 46.710903 -1.831190 -2.088446 29.748579 11.679001 0.237693 0.100722 -0.562397 111.380835 -71.370782 -112.883074 173.173187 45.136127 171.921390 -1.215782 13.082485 -4.563127 0.260300 1.807509 0.804111
32.584871 8.161595 45.017949 -143.148852 -55.731966 17.432352 -2.660140 20.294158 3.000182 -1.650111 11.530406 2.078618 -2.005874 14.421490 2.558211 -1.650121 11.530474 2.078630 -20.042562 13.894785 -1.225453 -23.837573 -9.909072 3.570977 -19.972655 0.349817 -17.081210 -16.041052 22.857662 103.127532 36.321849 -37.075797 -11.806577 28.236611 -6.837663 -60.975386 -16.267236 -9.649710 -2.937571 13.815385 -21.195095 -53.475731 -29.127653 8.625746 -14.572410 4.622220 4.112892 -1.135875 -7.007873 -60.825241 -10.246589 0.820135 46.828753 -1.777939 -2.226272 29.441307 11.546859 0.207033 0.151690 -0.550915 111.042451 -71.693082 -112.354506 173.163332 45.081050 171.877877 -1.318688 12.632360 -4.965586 0.198897 1.645206 0.739028
32.655169 8.399461 44.960051 -143.784914 -55.639176 18.035238 -2.849024 20.270210 2.925232 -1.756024 11.528791 1.986198 -2.141962 14.419636 2.438650 -1.756037 11.528864 1.986211 -20.077479 13.858277 -1.240100 -23.885484 -9.948535 3.564255 -19.955504 0.051304 -17.030635 -16.516661 22.516334 102.551771 35.648112 -36.304732 -11.459206 28.246146 -6.698846 -61.154727 -16.753150 -10.070418 -2.791729 13.020945 -21.957162 -52.327043 -30.886744 8.141422 -15.536589 4.106465 3.928400 -1.173172 -7.017997 -60.871438 -10.031103 0.871994 46.967068 -1.761520 -2.358829 29.112011 11.478974 0.190726 0.183755 -0.562744 110.684458 -72.050014 -111.797740 173.174753 45.027764 171.831380 -1.424548 12.203318 -5.333074 0.146243 1.464871 0.664992
32.715780 8.640046 44.908924 -144.428072 -55.533216 18.675533 -3.052790 20.230630 2.784729 -1.858595 11.522770 1.892968 -2.273896 14.412193 2.318196 -1.858616 11.522843 1.892982 -20.114276 13.837381 -1.253977 -23.934890 -9.969272 3.558188 -19.933815 -0.287645 -16.973735 -16.889369 22.116745 101.959208 34.853709 -35.629343 -11.120441 28.265479 -6.580615 -61.314273 -17.238555 -10.499168 -2.601801 12.188319 -22.655580 -51.221623 -32.537118 7.747137 -16.310274 3.558574 3.731738 -1.061660 -6.941518 -60.940587 -9.894947 0.926637 47.145919 -1.771119 -2.503819 28.747253 11.461234 0.184574 0.207058 -0.583257 110.258734 -72.381092 -111.164683 173.209946 44.979407 171.786092 -1.534967 11.776545 -5.684829 0.117059 1.294290 0.598314
